<svg xmlns="http://www.w3.org/2000/svg" width="1600" height="900"><defs><linearGradient id="s" x2="0" y2="1"><stop stop-color="#031023"/><stop offset=".55" stop-color="#07516b"/><stop offset="1" stop-color="#020711"/></linearGradient><linearGradient id="g"><stop stop-color="#00ffd0"/><stop offset="1" stop-color="#6c7cff"/></linearGradient></defs><rect width="1600" height="900" fill="url(#s)"/><path d="M0 270 Q300 30 560 300T1100 250T1600 330V0H0Z" fill="url(#g)" opacity=".42"/><path d="M0 690 250 470 450 650 700 390 920 650 1160 420 1400 620 1600 500V900H0Z" fill="#020711"/><rect x="380" y="160" width="840" height="570" rx="28" fill="#04182b" fill-opacity=".88" stroke="#64dcff" stroke-opacity=".5"/><g font-family="sans-serif" fill="white"><text x="450" y="245" font-size="48" font-weight="700">Chimera II OS Installer</text><text x="450" y="290" font-size="22" opacity=".8">Aurora Wayland Glass • Installation</text><g fill="#5ee7ff"><circle cx="470" cy="360" r="11"/><circle cx="470" cy="430" r="11"/><circle cx="470" cy="500" r="11"/><circle cx="470" cy="570" r="11"/><circle cx="470" cy="640" r="11"/></g><g font-size="25"><text x="510" y="369">Welcome</text><text x="510" y="439">Storage &amp; Encryption</text><text x="510" y="509">Software &amp; Aurora Desktop</text><text x="510" y="579">Drivers &amp; Security</text><text x="510" y="649">Review &amp; Install</text></g></g></svg>